<?xml version="1.0" encoding="UTF-8" standalone="no"?>
<!DOCTYPE svg PUBLIC "-//W3C//DTD SVG 1.1//EN" "http://www.w3.org/Graphics/SVG/1.1/DTD/svg11.dtd">
<svg width="100%" height="100%" viewBox="0 0 4000 3508" version="1.1" xmlns="http://www.w3.org/2000/svg" xmlns:xlink="http://www.w3.org/1999/xlink" xml:space="preserve" xmlns:serif="http://www.serif.com/" style="fill-rule:evenodd;clip-rule:evenodd;stroke-linejoin:round;stroke-miterlimit:2;">
    <g transform="matrix(1,0,0,1,-1176,-1269)">
        <g transform="matrix(1600,0,0,1600,1728.8,3614.937008)">
            <path d="M0.357,0.012C0.296,0.012 0.242,-0.002 0.196,-0.029C0.149,-0.056 0.113,-0.097 0.088,-0.15C0.063,-0.204 0.05,-0.27 0.05,-0.349C0.05,-0.428 0.063,-0.495 0.088,-0.548C0.113,-0.601 0.149,-0.642 0.196,-0.669C0.242,-0.696 0.296,-0.71 0.357,-0.71C0.419,-0.71 0.473,-0.696 0.519,-0.669C0.565,-0.642 0.601,-0.601 0.626,-0.548C0.651,-0.495 0.664,-0.428 0.664,-0.349C0.664,-0.27 0.651,-0.204 0.626,-0.15C0.601,-0.097 0.565,-0.056 0.519,-0.029C0.473,-0.002 0.419,0.012 0.357,0.012ZM0.357,-0.123C0.388,-0.123 0.414,-0.13 0.435,-0.144C0.457,-0.157 0.474,-0.177 0.485,-0.203C0.497,-0.229 0.503,-0.26 0.503,-0.297L0.503,-0.401C0.503,-0.438 0.497,-0.47 0.485,-0.495C0.474,-0.521 0.457,-0.541 0.435,-0.554C0.414,-0.568 0.388,-0.575 0.357,-0.575C0.327,-0.575 0.301,-0.568 0.279,-0.554C0.257,-0.541 0.24,-0.521 0.229,-0.495C0.217,-0.47 0.211,-0.438 0.211,-0.401L0.211,-0.297C0.211,-0.26 0.217,-0.229 0.229,-0.203C0.24,-0.177 0.257,-0.157 0.279,-0.144C0.301,-0.13 0.327,-0.123 0.357,-0.123Z" style="fill:rgb(72,22,255);fill-rule:nonzero;"/>
        </g>
        <g transform="matrix(1600,0,0,1600,2703.2,3614.937008)">
            <path d="M0.557,-0.563L0.368,-0.563L0.368,-0L0.216,-0L0.216,-0.563L0.027,-0.563L0.027,-0.698L0.557,-0.698L0.557,-0.563Z" style="fill:rgb(72,22,255);fill-rule:nonzero;"/>
        </g>
        <g transform="matrix(1600,0,0,1600,3509.6,3614.937008)">
            <path d="M0.505,-0L0.32,-0.304L0.229,-0.194L0.229,-0L0.077,-0L0.077,-0.698L0.229,-0.698L0.229,-0.366L0.235,-0.366L0.334,-0.501L0.491,-0.698L0.663,-0.698L0.428,-0.411L0.684,-0L0.505,-0Z" style="fill:rgb(72,22,255);fill-rule:nonzero;"/>
        </g>
        <g transform="matrix(1600,0,0,1600,4623.2,3614.937008)">
        </g>
    </g>
</svg>
